<svg width="683" height="650" viewBox="0 0 683 650" fill="none" xmlns="http://www.w3.org/2000/svg">
<path d="M641.624 323.18V500.943H425.963L427.419 323.18L428.309 321.456L467.814 244.505L486.693 207.723L490.544 200.244L534.53 114.539L535.436 116.308L595.049 232.439L641.624 323.18Z" fill="#DBDBDB"/>
<path d="M646.639 493.314L641.624 494.169L602.184 500.943H505.2L434.812 363.079L428.309 321.456L467.814 244.505L486.693 207.723L490.543 200.244L534.53 114.539L535.436 116.308L507.061 311.728L531.812 259.448L530.825 361.25L564.474 321.816V378.682L552.6 359.422L541.713 445.621L601.1 315.401L641.624 473.724L646.639 493.314Z" fill="#B8B8B8"/>
<path d="M486.694 207.723L483.312 214.303L521.912 172.32L534.789 221.842L549.64 179.665L565.477 198.85L571.366 186.304L535.436 116.308L534.53 114.539L490.544 200.244L486.694 207.723Z" fill="white" stroke="#263238" stroke-linecap="round" stroke-linejoin="round"/>
<path d="M641.624 323.18V500.943H425.963L427.419 323.18L428.309 321.456L467.814 244.505L486.693 207.723L490.544 200.244L534.53 114.539L535.436 116.308L595.049 232.439L641.624 323.18Z" stroke="#263238" stroke-linecap="round" stroke-linejoin="round"/>
<path d="M748.913 530.546L708.194 505.2L702.468 552.354L663.658 538.205L654.13 590.065L587.964 550.001H531.99L535.161 497.541L597.444 373.466L600.259 367.875L636.949 294.791L666.214 346.667L671.229 357.818L678.266 373.466L748.913 530.546Z" fill="#DBDBDB"/>
<path d="M663.658 538.205L694.363 549.401L690.707 538.55L679.593 521.388L687.924 510.236L686.339 467.234L656.443 505.95L654.599 423.588L624.962 478.491L640.686 301.416L636.949 294.791L600.259 367.875L597.444 373.466L535.161 497.541L531.99 550.001H587.964L654.13 590.065L663.658 538.205Z" fill="#B8B8B8"/>
<path d="M753.151 538.55L640.411 286.308L512.933 540.843" stroke="#263238" stroke-linecap="round" stroke-linejoin="round"/>
<path d="M651.622 380.631L659.953 373.601L680.418 394.66L682.116 379.626L640.411 286.308L591.83 383.329L591.766 384.138L634.959 342.02L651.622 380.631Z" fill="white" stroke="#263238" stroke-linecap="round" stroke-linejoin="round"/>
<path d="M563.746 593.318L567.532 634.731L536.924 620.747L496.836 602.431L458.431 584.894L437.967 599.643L381.912 577.88L331.908 622.8L292.5 591.219L245.537 600.332L248.562 558.215L329.287 390.898L339.77 369.149L411.452 220.583L434.942 270.42L456.911 297.1L553.522 513.983L571.754 492.505L631.173 621.391L563.746 593.318Z" fill="#DBDBDB"/>
<path d="M422.922 478.641L404.124 456.637L415.998 346.577L361.561 446.55L409.074 258.534L412.083 221.902L411.452 220.583L339.77 369.149L329.287 390.898L248.562 558.215L245.537 600.332L292.5 591.219L331.908 622.8L381.912 577.88L398.785 584.43L403.137 520.833L436.786 543.766L432.822 456.637L422.922 478.641Z" fill="#B8B8B8"/>
<path d="M638.842 638.313L571.754 492.505L553.522 513.983L416.516 207.498L253.674 548.517" stroke="#263238" stroke-linecap="round" stroke-linejoin="round"/>
<path d="M465.032 316.045L416.516 207.498L359.733 326.417L403.913 280.837L430.978 298.194L435.136 285.663L465.032 316.045Z" fill="white" stroke="#263238" stroke-linecap="round" stroke-linejoin="round"/>
<path d="M536.924 620.747L496.837 602.431L469.271 488.443L536.924 620.747Z" fill="#B8B8B8"/>
<path d="M569.392 207.723H486.693L490.544 200.229H490.786C494.636 199.869 495.025 197.381 500.412 196.662C505.799 195.942 509.665 198.805 513.904 197.021C518.142 195.238 520.844 188.448 529.321 189.527C537.798 190.606 549.737 202.012 549.737 202.012C554.363 202.012 556.288 200.948 561.303 202.732C564.355 203.839 567.113 205.541 569.392 207.723Z" fill="#263238" stroke="#263238" stroke-linecap="round" stroke-linejoin="round"/>
<path d="M553.926 198.145C553.926 198.145 541.971 186.709 533.494 185.645C525.017 184.581 522.316 191.356 518.077 193.139C513.839 194.923 509.988 192.075 504.601 192.78C499.214 193.484 498.81 196.002 494.895 196.362C490.98 196.721 488.343 194.218 484.105 194.863C479.866 195.507 477.634 199.869 475.239 199.869C472.845 199.869 469.076 197.366 464.837 197.366C460.599 197.366 454.047 200.933 454.047 200.933L427.84 203.796H573.582C571.307 201.606 568.547 199.899 565.493 198.79C560.478 197.066 558.553 198.145 553.926 198.145Z" fill="white" stroke="#263238" stroke-linecap="round" stroke-linejoin="round"/>
<path d="M702.71 169.218C702.71 169.218 690.771 157.796 682.294 156.717C673.817 155.638 671.115 162.428 666.877 164.211C662.638 165.995 658.788 163.132 653.385 163.852C647.982 164.571 647.61 167.059 643.759 167.419C639.909 167.779 637.208 165.276 632.969 165.995C628.731 166.714 626.417 170.986 624.104 170.986C621.79 170.986 617.94 168.483 613.702 168.483C609.463 168.483 602.911 172.065 602.911 172.065L576.704 174.913H722.301C720.022 172.732 717.263 171.029 714.212 169.922C709.262 168.153 707.336 169.218 702.71 169.218Z" fill="white" stroke="#263238" stroke-linecap="round" stroke-linejoin="round"/>
<path d="M629.087 414.22C629.087 414.22 607.684 393.761 592.477 391.827C577.27 389.894 572.466 402.064 564.862 405.317C557.259 408.569 550.303 403.398 540.693 404.672C531.084 405.946 530.34 410.443 523.432 411.072C516.524 411.702 511.687 407.235 504.1 408.524C496.513 409.813 492.355 417.517 488.214 417.517C484.072 417.517 477.165 413.021 469.578 413.021C461.99 413.021 450.165 419.421 450.165 419.421L403.25 424.547H664.305C660.212 420.607 655.244 417.539 649.745 415.554C640.815 412.301 637.369 414.22 629.087 414.22Z" fill="#263238" stroke="#263238" stroke-linecap="round" stroke-linejoin="round"/>
<path d="M637.24 410.443C637.24 410.443 615.837 389.968 600.63 388.05C585.423 386.131 580.619 398.287 573.015 401.54C565.412 404.792 558.456 399.621 548.846 400.895C539.237 402.169 538.493 406.666 531.585 407.295C524.677 407.925 519.84 403.458 512.253 404.747C504.666 406.036 500.508 413.74 496.367 413.74C492.226 413.74 485.318 409.244 477.731 409.244C470.143 409.244 458.318 415.644 458.318 415.644L411.403 420.77H672.458C668.365 416.83 663.398 413.761 657.898 411.777C648.968 408.524 645.522 410.443 637.24 410.443Z" fill="white" stroke="#263238" stroke-linecap="round" stroke-linejoin="round"/>
<path d="M678.266 373.466H597.379L600.194 367.875C602.023 368.642 603.946 369.2 605.921 369.539C608.234 369.539 610.547 365.252 614.786 364.548C619.024 363.843 621.726 366.332 625.576 365.972C629.426 365.612 629.815 363.109 635.283 362.405C640.75 361.7 644.52 364.548 648.758 362.749C652.997 360.951 655.698 354.191 664.175 355.255C666.68 355.689 669.073 356.559 671.229 357.818L678.266 373.466Z" fill="#263238" stroke="#263238" stroke-linecap="round" stroke-linejoin="round"/>
<path d="M688.231 363.049C688.231 363.049 676.292 351.613 667.815 350.549C659.338 349.485 656.637 356.259 652.398 358.043C648.16 359.827 644.309 356.979 638.906 357.683C633.503 358.388 633.131 360.906 629.281 361.25C625.43 361.595 622.729 359.122 618.49 359.827C614.252 360.531 611.938 364.833 609.625 364.833C607.312 364.833 603.461 362.33 599.223 362.33C594.985 362.33 588.433 365.897 588.433 365.897L562.225 368.76H707.822C705.546 366.571 702.787 364.863 699.733 363.754C694.783 361.97 692.858 363.049 688.231 363.049Z" fill="white" stroke="#263238" stroke-linecap="round" stroke-linejoin="round"/>
<path d="M467.248 390.898H329.287L339.77 369.149C342.768 369.528 345.82 369.128 348.587 367.995C357.663 364.188 363.422 349.679 381.557 351.973C399.691 354.266 425.235 378.682 425.235 378.682C435.12 378.682 439.245 376.404 449.954 380.181C456.483 382.561 462.382 386.216 467.248 390.898Z" fill="#263238" stroke="#263238" stroke-linecap="round" stroke-linejoin="round"/>
<path d="M431.075 374.036C431.075 374.036 405.531 349.604 387.396 347.311C369.261 345.018 363.502 359.527 354.427 363.349C345.351 367.171 337.133 361.056 325.599 362.584C314.064 364.113 313.239 369.449 304.989 370.214C296.738 370.978 290.979 365.642 281.92 367.216C272.86 368.79 267.91 377.903 262.976 377.903C258.042 377.903 249.791 372.552 240.716 372.552C231.64 372.552 217.647 380.196 217.647 380.196L161.641 386.266H473.104C468.234 381.589 462.329 377.943 455.794 375.579C445.085 371.742 440.976 374.036 431.075 374.036Z" fill="white" stroke="#263238" stroke-linecap="round" stroke-linejoin="round"/>
<path d="M357.42 111.122C357.42 111.122 331.876 86.6908 313.741 84.3976C295.606 82.1043 289.847 96.6132 280.771 100.435C271.696 104.257 263.478 98.142 251.927 99.6709C240.376 101.2 239.568 106.536 231.333 107.3C223.099 108.064 217.324 102.803 208.264 104.302C199.205 105.801 194.271 114.974 189.321 114.974C184.37 114.974 176.136 109.623 167.077 109.623C158.017 109.623 144.008 117.267 144.008 117.267L87.9692 123.368H399.449C394.574 118.695 388.67 115.05 382.139 112.681C371.429 108.829 367.304 111.122 357.42 111.122Z" fill="white" stroke="#263238" stroke-linecap="round" stroke-linejoin="round"/>
<path d="M699.345 594.427C699.345 594.427 662.606 559.294 636.528 555.996C610.45 552.699 602.168 573.563 589.129 579.064C576.09 584.564 564.232 575.766 547.65 577.954C531.068 580.143 529.855 587.847 518.013 588.941C506.171 590.035 497.872 582.346 484.833 584.549C471.794 586.753 464.676 599.928 457.574 599.928C450.472 599.928 438.614 592.239 425.575 592.239C412.536 592.239 392.379 603.21 392.379 603.21L311.832 611.993H759.784C752.782 605.271 744.295 600.03 734.903 596.63C719.502 591.129 713.565 594.427 699.345 594.427Z" fill="white" stroke="#263238" stroke-linecap="round" stroke-linejoin="round"/>
<path d="M534.53 114.54V53.0566" stroke="#263238" stroke-linecap="round" stroke-linejoin="round"/>
<path d="M576.817 104.123V92.7463C579.366 94.0259 581.529 95.8756 583.11 98.1272C583.382 98.6042 583.599 99.1066 583.757 99.626C582.199 99.4122 580.612 99.7589 579.322 100.595C578.031 101.431 577.135 102.693 576.817 104.123Z" fill="#263238" stroke="#263238" stroke-linecap="round" stroke-linejoin="round"/>
<path d="M550.286 59.8764C540.725 60.2062 535.727 56.7438 534.465 55.8295V72.7665L534.788 92.4015C537.636 96.5533 557.631 96.5533 569.068 96.5533C580.506 96.5533 583.757 99.551 583.757 99.551V62.5144C577.642 57.2384 561.303 59.5167 550.286 59.8764Z" fill="#EEE6CE" stroke="#263238" stroke-miterlimit="10"/>
<path d="M583.758 64.1482C582.099 63.0073 580.096 62.3781 578.031 62.3495C570.961 62.3495 565.218 69.8438 565.218 79.2266C565.218 88.6094 570.961 96.0887 578.031 96.0887C580.096 96.0602 582.099 95.431 583.758 94.2901V64.1482Z" fill="white" stroke="#263238" stroke-linecap="round" stroke-linejoin="round"/>
<path d="M583.757 99.581C583.757 99.581 576.623 99.0864 576.817 104.078C576.914 106.461 580.053 108.229 591.506 107.48C602.96 106.731 620.529 109.114 620.529 109.114L609.496 90.9926L625.819 84.9972C619.908 80.9187 613.296 77.7969 606.26 75.7643C598.953 73.7245 591.337 72.7932 583.709 73.0064L583.757 99.581Z" fill="#EEE6CE" stroke="#263238" stroke-miterlimit="10"/>
<path d="M578.386 93.8254V91.817C577.555 91.7648 576.749 91.5261 576.039 91.1213C575.329 90.7166 574.735 90.1581 574.31 89.4937C573.364 87.9805 572.857 86.2662 572.838 84.5175L575.507 83.933C575.564 84.7549 575.688 85.5717 575.879 86.3761C576.025 87.0835 576.334 87.7533 576.785 88.3396C576.995 88.6009 577.265 88.8157 577.576 88.9686C577.886 89.1215 578.229 89.2087 578.581 89.2239C578.905 89.2725 579.237 89.2459 579.548 89.1465C579.858 89.0471 580.137 88.878 580.36 88.6544C580.798 88.0719 581.009 87.369 580.959 86.6609C581 85.7451 580.764 84.8367 580.279 84.0379C579.806 83.2967 579.265 82.5946 578.662 81.9395L575.022 78.1774C574.586 77.7147 574.201 77.2125 573.873 76.6785C573.547 76.1406 573.312 75.5592 573.177 74.9549C573.015 74.2709 572.939 73.5717 572.951 72.8715C572.844 71.487 573.307 70.1163 574.245 69.0344C574.701 68.5963 575.258 68.2595 575.874 68.0493C576.491 67.839 577.15 67.7607 577.804 67.8203V65.8718H578.742V67.8203C579.435 67.9186 580.101 68.1427 580.7 68.4798C581.264 68.8101 581.744 69.2498 582.107 69.7688C582.524 70.3512 582.83 70.9949 583.013 71.6724C583.254 72.5161 583.406 73.3795 583.466 74.2504L580.894 74.805C580.848 74.0688 580.74 73.3371 580.57 72.6167C580.441 72.0022 580.152 71.4262 579.729 70.938C579.514 70.7172 579.248 70.5435 578.952 70.4295C578.655 70.3154 578.335 70.2639 578.014 70.2785C577.374 70.2468 576.745 70.4516 576.267 70.848C576.035 71.098 575.86 71.3887 575.751 71.7029C575.643 72.017 575.604 72.3482 575.636 72.6766C575.614 73.2866 575.73 73.8942 575.976 74.4603C576.256 75.0062 576.622 75.5112 577.06 75.9591L580.716 79.7212C581.269 80.3091 581.772 80.9354 582.221 81.5948C582.7 82.2986 583.085 83.0535 583.369 83.8431C583.669 84.7201 583.817 85.6359 583.806 86.556C583.828 87.5019 583.635 88.4414 583.24 89.3139C582.924 90.032 582.385 90.6467 581.69 91.0792C580.996 91.5118 580.178 91.7425 579.341 91.742V93.7804L578.386 93.8254Z" fill="#263238"/>
<path d="M566.771 10.864V30.1542" stroke="#263238" stroke-linecap="round" stroke-linejoin="round"/>
<path d="M566.771 124.732V144.022" stroke="#263238" stroke-linecap="round" stroke-linejoin="round"/>
<path d="M489.46 37.4986L513.24 54.9452" stroke="#263238" stroke-linecap="round" stroke-linejoin="round"/>
<path d="M640.119 37.4986L616.323 54.9452" stroke="#263238" stroke-linecap="round" stroke-linejoin="round"/>
<path d="M640.119 137.277L616.323 119.831" stroke="#263238" stroke-linecap="round" stroke-linejoin="round"/>
<path d="M488.473 137.277L512.254 119.831" stroke="#263238" stroke-linecap="round" stroke-linejoin="round"/>
<path d="M503.34 87.0806H471.616" stroke="#263238" stroke-linecap="round" stroke-linejoin="round"/>
<path d="M665.874 87.0806H634.166" stroke="#263238" stroke-linecap="round" stroke-linejoin="round"/>
<path d="M235.523 649L247.219 623.864C247.219 623.864 251.895 612.593 254.709 609.131C257.143 605.799 259.332 602.318 261.261 598.714L276.241 577.91L291.222 535.402L249.662 548.247L217.712 571.015L174.033 590.935L22.9036 619.413" fill="white"/>
<path d="M235.523 649L247.219 623.864C247.219 623.864 251.894 612.593 254.709 609.131C257.143 605.799 259.332 602.318 261.261 598.714L276.241 577.91L291.222 535.402L249.662 548.247L217.712 571.015L174.033 590.935L22.9036 619.413" stroke="#263238" stroke-linecap="round" stroke-linejoin="round"/>
<path d="M24.4405 512.859H208.847L291.222 535.402L282.793 547.543L265.937 552.759L247.219 557.09L232.239 577.04L220.074 586.573L179.824 592.643L19.749 625.603" fill="white"/>
<path d="M24.4405 512.859H208.847L291.222 535.402L282.793 547.543L265.937 552.759L247.219 557.09L232.239 577.04L220.074 586.573L179.824 592.643L19.749 625.603" stroke="#263238" stroke-linecap="round" stroke-linejoin="round"/>
<path d="M247.219 557.09L249.096 589.181L238.791 607.392L231.301 618.663L210.95 649" fill="white"/>
<path d="M247.219 557.09L249.096 589.181L238.791 607.392L231.301 618.663L210.95 649" stroke="#263238" stroke-linecap="round" stroke-linejoin="round"/>
<path d="M220.074 586.573L217.275 613.462L203.233 621.271L184.5 631.673" fill="white"/>
<path d="M220.074 586.573L217.275 613.462L203.233 621.271L184.5 631.673" stroke="#263238" stroke-linecap="round" stroke-linejoin="round"/>
<path opacity="0.21" d="M196.503 549.102C196.503 554.333 166.122 558.559 128.639 558.559C91.1561 558.559 60.6941 554.333 60.6941 549.102C60.6941 543.871 91.0914 539.644 128.639 539.644C166.187 539.644 196.503 543.886 196.503 549.102Z" fill="black"/>
<path d="M234.326 200.034C234.326 200.034 238.629 196.766 241.169 195.148C243.709 193.529 248.222 188.972 248.611 187.159C248.999 185.345 251.15 174.464 251.15 174.464C249.64 174.383 248.126 174.504 246.653 174.823C243.725 175.378 241.169 176.097 241.169 176.097L233.339 184.806L234.326 200.034Z" fill="white" stroke="#263238" stroke-miterlimit="10"/>
<path d="M244.89 175.198C244.89 175.198 244.308 178.196 245.473 179.185C246.637 180.174 253.302 180.264 254.289 178.45C255.276 176.637 255.47 173.564 254.289 173.564C253.108 173.564 244.89 175.198 244.89 175.198Z" fill="white" stroke="#263238" stroke-miterlimit="10"/>
<path d="M249.792 180.639C249.792 180.639 240.587 180.999 240.199 182.138C239.81 183.277 239.212 185.405 239.81 185.765C240.409 186.125 249.986 186.14 250.957 185.045C251.927 183.951 253.302 179.545 249.792 180.639Z" fill="white" stroke="#263238" stroke-miterlimit="10"/>
<path d="M249.193 185.525C249.193 185.525 240.005 185.885 239.6 187.024C239.196 188.163 238.63 190.291 239.212 190.651C239.794 191.011 249.387 191.011 250.374 189.932C251.361 188.853 252.72 184.446 249.193 185.525Z" fill="white" stroke="#263238" stroke-miterlimit="10"/>
<path d="M246.508 190.201C246.508 190.201 239.551 190.471 239.26 191.296C238.969 192.12 238.516 193.769 238.953 194.039C239.39 194.308 246.653 194.308 247.381 193.484C248.109 192.66 249.161 189.377 246.508 190.201Z" fill="white" stroke="#263238" stroke-miterlimit="10"/>
<path d="M287.355 168.378L224.264 177.206H223.487H222.856C221.593 177.068 220.427 176.51 219.574 175.636C218.721 174.761 218.239 173.63 218.217 172.452C218.196 171.274 218.636 170.128 219.456 169.228C220.276 168.327 221.421 167.732 222.678 167.554L283.198 159.115L285.77 158.756C286.459 158.638 287.166 158.65 287.849 158.79C288.533 158.93 289.18 159.195 289.751 159.571C290.322 159.946 290.806 160.424 291.175 160.975C291.543 161.527 291.789 162.141 291.897 162.782C292.005 163.423 291.973 164.078 291.804 164.707C291.634 165.336 291.331 165.928 290.91 166.447C290.49 166.966 289.962 167.401 289.357 167.728C288.752 168.054 288.082 168.265 287.388 168.348L287.355 168.378Z" fill="white" stroke="#263238" stroke-miterlimit="10"/>
<path d="M282.874 168.843L222.856 177.237C221.593 177.098 220.427 176.54 219.574 175.666C218.721 174.792 218.239 173.661 218.217 172.482C218.196 171.304 218.636 170.158 219.456 169.258C220.276 168.357 221.421 167.762 222.678 167.584L283.198 159.145C284.416 159.391 285.502 160.024 286.268 160.935C287.033 161.846 287.429 162.978 287.387 164.132C287.345 165.286 286.867 166.39 286.036 167.25C285.205 168.111 284.075 168.675 282.842 168.843H282.874Z" fill="#B5B5B5" stroke="#263238" stroke-miterlimit="10"/>
<path d="M180.099 181.928C179.145 181.943 178.221 181.619 177.516 181.023C176.811 180.427 176.379 179.603 176.309 178.721C176.239 177.839 176.535 176.966 177.138 176.28C177.74 175.595 178.603 175.148 179.549 175.033L222.856 168.933C223.357 168.834 223.874 168.832 224.376 168.925C224.877 169.018 225.353 169.206 225.774 169.476C226.194 169.746 226.551 170.093 226.822 170.495C227.092 170.898 227.271 171.347 227.348 171.816C227.424 172.285 227.396 172.763 227.265 173.222C227.134 173.68 226.904 174.109 226.588 174.482C226.272 174.855 225.877 175.164 225.427 175.39C224.977 175.617 224.482 175.755 223.972 175.798L180.601 181.793L180.099 181.928Z" fill="#B5B5B5" stroke="#263238" stroke-miterlimit="10"/>
<path d="M223.358 202.582C223.358 202.582 228.454 186.619 228.842 183.711C229.231 180.804 232.757 178.271 232.757 178.271C232.757 178.271 239.228 173.384 240.846 170.776C242.464 168.168 243.79 171.316 243.79 173.504C243.79 175.693 236.154 182.392 236.154 182.392C236.845 185.355 237.299 188.361 237.513 191.386C237.205 193.938 236.341 196.406 234.974 198.64L231.253 208.607L223.358 202.582Z" fill="white" stroke="#263238" stroke-miterlimit="10"/>
<path d="M221.401 200.214L236.09 210.196L230.8 218.53L217.292 208.023L221.401 200.214Z" fill="white" stroke="#263238" stroke-miterlimit="10"/>
<path d="M217.68 206.209L235.895 219.804C235.895 219.804 197.717 272.039 195.371 273.493C193.217 274.576 190.907 275.368 188.512 275.846L179.517 250.096L217.68 206.209Z" fill="#EEE6CE" stroke="#263238" stroke-miterlimit="10"/>
<path d="M165.233 212.549L174.227 217.81H169.536L167.19 219.804L162.871 219.444L161.318 214.723L165.233 212.549Z" fill="white" stroke="#263238" stroke-linecap="round" stroke-linejoin="round"/>
<path d="M176.573 158.141C176.573 158.141 182.057 170.836 181.28 172.11C180.504 173.384 179.323 175.378 179.662 176.607C180.002 177.836 185.535 184.101 184.952 185.135C183.61 186.956 182.169 188.712 180.633 190.396C180.633 190.396 178.676 198.55 179.015 199.284C179.355 200.019 181.167 201.997 179.986 203.991C178.805 205.984 175.796 206.404 173.839 206.404C172.333 206.371 170.831 206.251 169.341 206.044L163.663 216.012L131.761 204.77L136.614 194.788C134.445 189.52 134.101 183.758 135.628 178.301C138.184 169.053 157.37 158.351 165.394 157.317C173.418 156.282 176.573 158.141 176.573 158.141Z" fill="white" stroke="#263238" stroke-linecap="round" stroke-linejoin="round"/>
<path d="M169.147 160.494C169.147 160.494 174.227 166.67 173.256 168.483C171.519 170.708 169.552 172.771 167.384 174.643C167.384 174.643 169.002 180.999 168.16 181.718C167.651 182.115 167.054 182.403 166.41 182.561C165.767 182.719 165.094 182.743 164.44 182.632C163.663 182.258 158.761 173.639 155.639 175.558C152.517 177.476 151.918 182.258 153.277 184.986C153.988 186.445 154.843 187.84 155.833 189.152C155.833 189.152 148.003 195.867 143.7 196.647C139.397 197.426 136.064 197.741 134.884 196.107C133.703 194.473 126.471 179.784 126.277 169.442C126.083 159.1 133.508 150.407 138.022 148.458C142.535 146.51 151.126 146.285 151.126 146.285C151.126 146.285 151.724 141.564 157.791 141.789C163.857 142.013 170.118 146.51 170.118 146.51C170.118 146.51 168.16 139.975 172.852 143.782C177.543 147.589 180.941 149.777 179.905 155.773C178.87 161.768 169.147 160.494 169.147 160.494Z" fill="#263238" stroke="#263238" stroke-linecap="round" stroke-linejoin="round"/>
<path d="M155.833 189.152L160.137 190.246L161.9 193.514" stroke="#263238" stroke-linecap="round" stroke-linejoin="round"/>
<path d="M173.839 206.404C172.48 205.766 171.172 205.04 169.924 204.231C168.306 203.137 164.828 200.783 164.828 200.783L166.786 209.477L169.342 206.044L173.839 206.404Z" fill="#263238" stroke="#263238" stroke-linecap="round" stroke-linejoin="round"/>
<path d="M124.126 202.027L122.362 209.642L161.107 219.624L179.905 234.672L164.828 217.99L162.482 212.729L124.126 202.027Z" fill="white" stroke="#263238" stroke-linecap="round" stroke-linejoin="round"/>
<path d="M167.19 219.804C167.19 219.804 178.045 223.281 186.328 244.07C194.61 264.859 217.857 347.641 217.857 347.641L205.029 350.639C201.112 330.639 195.849 310.885 189.272 291.494C179.177 262.626 167.19 219.804 167.19 219.804Z" fill="#EEE6CE" stroke="#263238" stroke-linecap="round" stroke-linejoin="round"/>
<path d="M206.89 343.294C206.89 343.294 202.505 387.271 200.661 408.344C198.817 429.418 180.682 486.39 178.531 494.079C176.379 501.768 175.457 525.405 175.457 525.405L178.531 527.398V529.676L188.981 535.942C188.981 535.942 204.35 541.083 200.969 544.215C197.588 547.348 191.44 546.209 182.834 546.209C174.227 546.209 165.039 543.361 162.24 543.361C159.981 543.446 157.719 543.35 155.478 543.076C154.248 542.791 151.482 543.931 151.482 541.367C150.991 537.249 150.273 533.157 149.33 529.107C149.33 529.107 146.823 525.66 146.823 523.411C146.823 521.163 147.438 513.444 148.667 510.596C149.897 507.748 151.741 496.357 151.741 496.357L153.585 466.455L142.827 488.098L133.606 523.981C133.606 523.981 138.217 525.405 138.217 526.544C138.217 527.683 137.294 532.809 137.294 532.809C137.294 532.809 143.134 538.22 145.901 540.303C151.358 543.529 157.001 546.477 162.806 549.132C163.728 549.416 167.659 552.549 165.265 553.973C162.871 555.397 150.511 556.251 140.675 556.251C130.84 556.251 118.221 552.264 118.221 552.264L115.455 553.973L105.312 551.695C104.082 551.41 103.467 546.284 103.694 544.29C103.85 542.484 103.85 540.67 103.694 538.864C103.694 537.725 102.772 531.745 103.387 529.751C104.001 527.758 106.153 522.347 106.153 522.347C106.153 522.347 110.763 476.212 111.993 469.093C113.222 461.973 121.651 446.22 121.651 446.22C121.651 446.22 125.97 418.297 126.504 412.886C127.038 407.475 127.426 386.971 127.426 386.971C124.472 380.031 122.103 372.891 120.341 365.612C118.496 356.499 120.033 354.506 120.033 354.506L124.175 340.267L206.89 343.294Z" fill="#263238" stroke="#263238" stroke-linecap="round" stroke-linejoin="round"/>
<path d="M159.619 458.976C159.619 458.976 168.986 430.063 170.539 421.384C172.092 412.706 182.51 379.926 182.51 379.926L192.394 373.661" stroke="#8C8C8C" stroke-linecap="round" stroke-linejoin="round"/>
<path d="M123.721 454.644C123.721 454.644 146.095 442.114 159.101 420.425" stroke="#8C8C8C" stroke-linecap="round" stroke-linejoin="round"/>
<path d="M162.207 407.4C162.207 407.4 148.683 426.69 139.316 434.379" stroke="#8C8C8C" stroke-linecap="round" stroke-linejoin="round"/>
<path d="M185.972 248.642C185.972 248.642 201.826 318.548 203.961 327.946C206.097 337.344 206.889 343.294 206.889 343.294C203.63 343.892 200.335 344.302 197.021 344.523C194.077 344.523 187.671 344.283 187.671 344.283L177.964 244.805L185.972 248.642Z" fill="white" stroke="#263238" stroke-linecap="round" stroke-linejoin="round"/>
<path d="M117.703 206.929V214.543C117.703 214.543 108.709 247.922 109.874 258.429C111.038 268.936 122.217 302.69 122.217 302.69C122.217 302.69 119.467 306.857 119.273 307.397C119.451 308.994 119.781 310.574 120.26 312.118L110.23 357.788C110.23 357.788 148.392 365.282 173.451 363.229C198.51 361.176 200.208 359.991 200.208 359.991C200.208 359.991 196.973 316.839 197.134 306.677C197.296 296.515 188.124 253.543 185.972 248.642C183.82 243.74 179.906 234.672 179.906 234.672L161.107 219.684L117.703 206.929Z" fill="#EEE6CE" stroke="#263238" stroke-linecap="round" stroke-linejoin="round"/>
<path d="M146.629 261.337C146.629 261.337 125.889 278.754 122.945 279.848" stroke="#263238" stroke-linecap="round" stroke-linejoin="round"/>
<path d="M152.695 260.797C152.695 260.797 146.823 269.686 144.283 273.673" stroke="#263238" stroke-linecap="round" stroke-linejoin="round"/>
<path d="M150.155 274.572L143.895 285.633" stroke="#263238" stroke-linecap="round" stroke-linejoin="round"/>
<path d="M188.124 194.413C188.124 194.413 188.722 181.538 189.305 179.425C190.987 175.531 192.882 171.719 194.983 168.003C194.983 168.003 198.105 165.635 199.48 166.505C200.855 167.374 200.661 169.502 200.661 169.502C200.661 169.502 203.007 166.505 204.382 166.789C205.757 167.074 207.116 169.697 207.116 169.697C208.511 169.305 209.989 169.238 211.419 169.502C213.037 170.057 214.169 169.697 213.765 171.316C213.361 172.935 209.462 181.808 209.462 181.808C209.462 181.808 217.68 178.915 217.68 180.309C217.68 181.703 216.321 182.318 214.558 183.397C212.794 184.476 206.34 187.563 206.34 187.563L201.486 192.06L200.71 196.227L188.124 194.413Z" fill="white" stroke="#263238" stroke-linecap="round" stroke-linejoin="round"/>
<path d="M188.884 201.128L188.091 194.413C189.927 193.881 191.847 193.638 193.77 193.694C196.762 194.138 199.71 194.804 202.586 195.687L202.975 202.582L188.884 201.128Z" fill="white" stroke="#263238" stroke-linecap="round" stroke-linejoin="round"/>
<path d="M122.362 228.692C122.362 228.692 130.192 226.698 132.538 226.519C134.884 226.339 185.389 230.685 185.389 230.685L187.929 198.775C189.814 198.462 191.75 198.523 193.607 198.955L207.892 202.762C207.892 202.762 208.685 235.737 208.685 243.231V255.387C207.153 255.917 205.579 256.338 203.977 256.646C201.826 257.02 148.392 261.142 138.604 261.142C128.817 261.142 118.447 261.862 116.085 252.629" fill="#EEE6CE"/>
<path d="M122.362 228.692C122.362 228.692 130.192 226.698 132.538 226.519C134.884 226.339 185.389 230.685 185.389 230.685L187.929 198.775C189.814 198.462 191.75 198.523 193.607 198.955L207.892 202.762C207.892 202.762 208.685 235.737 208.685 243.231V255.387C207.153 255.917 205.579 256.338 203.977 256.646C201.826 257.02 148.392 261.142 138.604 261.142C128.817 261.142 118.447 261.862 116.085 252.629" stroke="#263238" stroke-linecap="round" stroke-linejoin="round"/>
</svg>
