<svg id="visual" viewBox="0 0 960 540" width="960" height="540" xmlns="http://www.w3.org/2000/svg" xmlns:xlink="http://www.w3.org/1999/xlink" version="1.1"><rect x="0" y="0" width="960" height="540" fill="#EEE6CE"></rect><path d="M0 449L22.8 449.3C45.7 449.7 91.3 450.3 137 434.3C182.7 418.3 228.3 385.7 274 382.8C319.7 380 365.3 407 411.2 419.2C457 431.3 503 428.7 548.8 419.8C594.7 411 640.3 396 686 382.7C731.7 369.3 777.3 357.7 823 360.8C868.7 364 914.3 382 937.2 391L960 400L960 541L937.2 541C914.3 541 868.7 541 823 541C777.3 541 731.7 541 686 541C640.3 541 594.7 541 548.8 541C503 541 457 541 411.2 541C365.3 541 319.7 541 274 541C228.3 541 182.7 541 137 541C91.3 541 45.7 541 22.8 541L0 541Z" fill="#fff" stroke-linecap="round" stroke-linejoin="miter"></path></svg>