<svg id="visual" viewBox="0 0 960 540" width="960" height="540" xmlns="http://www.w3.org/2000/svg" xmlns:xlink="http://www.w3.org/1999/xlink" version="1.1"><rect x="0" y="0" width="960" height="540" fill="#fff"></rect><path d="M0 89L22.8 88.7C45.7 88.3 91.3 87.7 137 103.7C182.7 119.7 228.3 152.3 274 155.2C319.7 158 365.3 131 411.2 118.8C457 106.7 503 109.3 548.8 118.2C594.7 127 640.3 142 686 155.3C731.7 168.7 777.3 180.3 823 177.2C868.7 174 914.3 156 937.2 147L960 138L960 0L937.2 0C914.3 0 868.7 0 823 0C777.3 0 731.7 0 686 0C640.3 0 594.7 0 548.8 0C503 0 457 0 411.2 0C365.3 0 319.7 0 274 0C228.3 0 182.7 0 137 0C91.3 0 45.7 0 22.8 0L0 0Z" fill="#EEE6CE" stroke-linecap="round" stroke-linejoin="miter"></path></svg>